# xmcd
#
# Track frame offsets: 
#        150
#        16283
#        34400
#        58575
#        81665
#        91925
#        109123
#        134725
#        148808
#        165725
#        176750
#
# Disc length: 2539 seconds
#
# Revision: 3
# Processed by: cddbd v1.5.2PL0 Copyright (c) Steve Scherf et al.
# Submitted via: ExactAudioCopy v1.0b3
#
DISCID=a009e90b
DTITLE=Sonny Boy Williamson and The Yardbirds - Live In London!
DYEAR=1980
DGENRE=Blues
TTITLE0=Bye, Bye Bird
TTITLE1=Mister Downchild
TTITLE2=The River Rhine
TTITLE3=23 Hours Too Long
TTITLE4=A Lost Care
TTITLE5=Pontiac Blues
TTITLE6=Take It Easy Baby
TTITLE7=Out on the Water Coast
TTITLE8=I Don't Care No More
TTITLE9=Honey in Your Hips
TTITLE10=Western Arizona
EXTD=
EXTT0=
EXTT1=
EXTT2=
EXTT3=
EXTT4=
EXTT5=
EXTT6=
EXTT7=
EXTT8=
EXTT9=
EXTT10=
PLAYORDER=
